# xmcd
#
# Track frame offsets:
#	150
#	6538
#	13556
#	27503
#	38895
#	49965
#	56909
#	76939
#	91213
#	102318
#	113174
#	139064
#	155598
#	173771
#	183084
#	204213
#	211111
#	221707
#	236976
#	247185
#	258351
#	263024
#
# Disc length: 3705 seconds
#
# Revision: 1
# Processed by: cddbd v1.5.2PL0 Copyright (c) Steve Scherf et al.
# Submitted via: audiograbber 1.83.01
#
DISCID=360e7716
DTITLE=Stribrnanka - Stribrné vánoce
DYEAR=2000
DGENRE=Folk
TTITLE0=Koleda,Koleda
TTITLE1=Co Se Stalo
TTITLE2=Stédrý Vecer Nastal
TTITLE3=Mamincino Cukrovi
TTITLE4=Pulnocni Koleda
TTITLE5=Vánocni Pozdravení
TTITLE6=Vyznani
TTITLE7=Pulnocni Zvon
TTITLE8=Rolnicky
TTITLE9=Vanocni Cas
TTITLE10=Smés Lidovych Koled
TTITLE11=Sonata Vespertina
TTITLE12=Maria,Ma Dobra Matko
TTITLE13=Ta Kulhava Katerinka,Ondrasu,Matusu
TTITLE14=Vanocni Zvon
TTITLE15=V Pulnocni Hodinu
TTITLE16=Na Kridlech Andelu
TTITLE17=Psanoicko Jeziskovi
TTITLE18=Co To Znamema
TTITLE19=Veselé Vánoce
TTITLE20=Vánoce
TTITLE21=Tichá Noc
EXTD=
EXTT0=
EXTT1=
EXTT2=
EXTT3=
EXTT4=
EXTT5=
EXTT6=
EXTT7=
EXTT8=
EXTT9=
EXTT10=
EXTT11=
EXTT12=
EXTT13=
EXTT14=
EXTT15=
EXTT16=
EXTT17=
EXTT18=
EXTT19=
EXTT20=
EXTT21=
PLAYORDER=
